<svg xmlns="http://www.w3.org/2000/svg" width="364" height="94" viewBox="0 0 364 94" version="1.1"><path d="M 151.270 1.054 C 145.455 2.202, 138.223 5.513, 133.802 9.051 L 130.104 12.011 124.802 10.038 C 110.268 4.629, 87.685 3.833, 71.626 8.163 C 63.248 10.422, 53.164 16.387, 49.705 21.132 C 47.811 23.730, 45.518 32.851, 46.510 33.843 C 46.791 34.124, 48.254 33.209, 49.760 31.810 C 63.387 19.153, 96.909 15.454, 121.299 23.914 L 127.098 25.926 131.799 22.552 C 140.228 16.503, 149.648 14, 163.984 14 C 174.918 14, 184.696 15.978, 193.728 20.016 L 200.606 23.091 206.266 19.683 C 217.174 13.115, 231.689 12.523, 244 18.146 C 247.575 19.779, 251.959 22.524, 253.742 24.246 L 256.984 27.377 260.742 25.274 C 281.833 13.468, 324.721 21.550, 330.427 38.406 C 331.642 41.996, 332.237 42.461, 337.773 44.161 C 345.729 46.603, 352.805 51.552, 356.500 57.258 C 358.563 60.445, 360.203 61.908, 361.750 61.946 C 363.820 61.996, 364 61.555, 364 56.450 C 364 46.592, 357.583 37.798, 346.497 32.466 C 342.533 30.560, 338.100 29, 336.645 29 C 334.645 29, 334 28.500, 334 26.950 C 334 9.474, 287.283 -1.531, 264.872 10.666 L 259.951 13.345 256.725 10.230 C 254.951 8.516, 250.402 5.668, 246.616 3.900 C 240.331 0.966, 238.850 0.681, 229.616 0.631 C 218.973 0.573, 214.084 1.956, 206.937 7.045 L 203.962 9.163 195.731 5.655 C 191.204 3.725, 184.830 1.664, 181.566 1.073 C 174.738 -0.162, 157.486 -0.173, 151.270 1.054 M 29.296 42.917 C 19.996 45.578, 13.114 51.628, 10.999 59.004 C 10.204 61.776, 10.331 62, 12.702 62 C 14.111 62, 16.710 61.106, 18.477 60.014 C 20.245 58.922, 25.168 57.208, 29.418 56.205 C 36.445 54.547, 37.455 53.989, 40.572 50.050 C 44.555 45.017, 44.911 42.477, 41.750 41.630 C 38.388 40.729, 36.128 40.963, 29.296 42.917" stroke="none" fill="#ffdc9b" fill-rule="evenodd"/><path d="M 148 15.470 C 140.440 17.209, 137.366 18.549, 131.845 22.516 L 127.098 25.926 121.299 23.914 C 100.942 16.853, 71.932 18.255, 56.500 27.046 C 50.609 30.402, 44.049 36.546, 43.882 38.864 C 43.817 39.764, 43.705 41.897, 43.632 43.604 L 43.500 46.709 47.231 44.354 C 55.048 39.420, 65.518 36.792, 79.500 36.253 C 93.641 35.708, 103.843 36.849, 113.641 40.071 L 119.782 42.091 125.379 38.170 C 140.078 27.873, 173.296 27.717, 190.495 37.864 C 193.595 39.694, 193.652 39.689, 196.562 37.360 C 205.333 30.340, 225.362 28.885, 237.500 34.385 C 240.800 35.880, 244.929 38.487, 246.676 40.177 L 249.853 43.250 254.176 41.163 C 270.903 33.090, 300.939 34.982, 315.540 45.028 C 320.789 48.639, 323.654 52.146, 324.499 55.996 C 325.051 58.508, 325.899 59.115, 330.818 60.517 C 338.122 62.598, 346.325 67.995, 349.782 72.993 C 352.308 76.647, 352.845 76.927, 357.387 76.962 L 362.274 77 361.758 70.569 C 360.813 58.807, 351.277 48.306, 337.773 44.161 C 332.237 42.461, 331.642 41.996, 330.427 38.406 C 324.721 21.550, 281.833 13.468, 260.742 25.274 L 256.984 27.377 253.742 24.246 C 251.959 22.524, 247.575 19.779, 244 18.146 C 231.689 12.523, 217.174 13.115, 206.266 19.683 L 200.606 23.091 193.728 20.016 C 189.946 18.325, 183.705 16.279, 179.860 15.471 C 171.507 13.713, 155.639 13.713, 148 15.470 M 29.694 56.063 C 17.519 59.055, 10.484 63.897, 8.139 70.899 C 5.788 77.916, 6.226 78.074, 17 74.096 C 20.749 72.712, 25.001 72.055, 30.357 72.033 C 37.429 72.003, 38.145 71.825, 37.525 70.250 C 36.130 66.709, 35.764 58.309, 36.912 56.164 C 37.549 54.974, 37.942 54.033, 37.785 54.072 C 37.628 54.112, 33.987 55.008, 29.694 56.063" stroke="none" fill="#b7ffa5" fill-rule="evenodd"/><path d="M 148 30.680 C 139.178 31.586, 130.846 34.340, 125.409 38.148 L 119.782 42.091 113.641 40.071 C 103.843 36.849, 93.641 35.708, 79.500 36.253 C 57.666 37.094, 43.542 43.254, 37.789 54.445 C 35.798 58.317, 35.655 65.510, 37.478 70.128 C 38.037 71.544, 36.907 71.814, 28.810 72.200 C 18.548 72.689, 10.719 75.298, 5.668 79.913 C 2.519 82.790, 0 87.993, 0 91.622 L 0 94 177.433 94 C 345.556 94, 354.894 93.908, 355.421 92.250 C 355.726 91.287, 355.556 87.916, 355.042 84.758 C 353.281 73.937, 344.408 64.832, 331.812 60.920 C 325.949 59.099, 325.047 58.488, 324.493 55.968 C 320.719 38.787, 277.817 29.754, 254.176 41.163 L 249.853 43.250 246.676 40.177 C 241.009 34.694, 232.778 31.725, 221.843 31.221 C 213.857 30.852, 211.089 31.141, 205.843 32.892 C 202.354 34.056, 198.178 36.067, 196.562 37.360 C 193.665 39.679, 193.583 39.686, 190.542 37.892 C 180.847 32.172, 162.974 29.142, 148 30.680" stroke="none" fill="#b4fceb" fill-rule="evenodd"/></svg>