<svg xmlns="http://www.w3.org/2000/svg" width="670" height="179" viewBox="0 0 670 179" version="1.1"><path d="M 470 25.848 L 470 50 475 50 L 480 50 480 43.178 L 480 36.355 487.042 35.265 C 495.614 33.938, 498.591 32.114, 501.062 26.672 C 503.509 21.281, 503.490 16.645, 501 11.500 C 497.925 5.149, 493.428 3.130, 480.609 2.345 L 470 1.696 470 25.848 M 572.536 8.960 C 568.688 13.213, 573.728 18.822, 578.907 16.050 C 582.791 13.971, 580.616 7, 576.084 7 C 575.108 7, 573.512 7.882, 572.536 8.960 M 627.667 9.667 C 627.300 10.033, 627 12.733, 627 15.667 C 627 20.333, 626.750 21, 625 21 C 623.333 21, 623 21.667, 623 25 C 623 28.333, 623.333 29, 625 29 C 626.873 29, 627 29.667, 627 39.500 L 627 50 632 50 L 637 50 637 39.500 L 637 29 640.560 29 C 644.063 29, 644.116 28.939, 643.810 25.250 C 643.527 21.826, 643.217 21.473, 640.250 21.187 L 637 20.873 637 14.937 L 637 9 632.667 9 C 630.283 9, 628.033 9.300, 627.667 9.667 M 480 19.130 L 480 26.260 484.603 25.741 C 489.726 25.164, 491.551 23.796, 492.530 19.800 C 493.517 15.774, 489.411 12, 484.045 12 L 480 12 480 19.130 M 151.270 16.054 C 145.455 17.202, 138.223 20.513, 133.802 24.051 L 130.104 27.011 124.802 25.038 C 110.268 19.629, 87.685 18.833, 71.626 23.163 C 63.248 25.422, 53.164 31.387, 49.705 36.132 C 47.811 38.730, 45.518 47.851, 46.510 48.843 C 46.791 49.124, 48.254 48.231, 49.760 46.859 C 56.150 41.040, 67.748 36.585, 80.694 34.976 C 92.871 33.463, 111.442 35.362, 121.683 39.167 L 126.865 41.093 131.683 37.636 C 134.332 35.734, 138.300 33.494, 140.500 32.657 C 155.645 26.896, 179.169 28.025, 193.887 35.218 L 200.602 38.500 205.317 35.315 C 208.224 33.351, 212.852 31.502, 217.386 30.493 C 230.336 27.612, 245.256 31.224, 253.742 39.294 L 256.984 42.377 260.742 40.274 C 272.587 33.644, 297.789 33.108, 313 39.163 C 323.799 43.462, 330.987 50.087, 330.996 55.750 C 330.999 57.225, 331.603 58, 332.750 58.001 C 335.719 58.001, 345.054 61.941, 349.762 65.181 C 352.225 66.875, 355.423 70.228, 356.870 72.632 C 358.977 76.133, 359.997 76.952, 362 76.751 C 364.380 76.512, 364.483 76.237, 364.156 71.019 C 363.526 60.970, 357.295 52.660, 346.497 47.466 C 342.533 45.560, 338.100 44, 336.645 44 C 334.645 44, 334 43.500, 334 41.950 C 334 24.474, 287.283 13.469, 264.872 25.666 L 259.951 28.345 256.725 25.230 C 254.951 23.516, 250.402 20.668, 246.616 18.900 C 240.331 15.966, 238.850 15.681, 229.616 15.631 C 218.973 15.573, 214.084 16.956, 206.937 22.045 L 203.962 24.163 195.731 20.655 C 191.204 18.725, 184.830 16.664, 181.566 16.073 C 174.738 14.838, 157.486 14.827, 151.270 16.054 M 525.500 21.164 C 524.400 21.771, 522.263 23.417, 520.750 24.821 L 518 27.374 518 24.687 C 518 22.169, 517.717 22, 513.500 22 L 509 22 509 36 L 509 50 514 50 L 519 50 519 42.646 C 519 36.226, 519.311 34.956, 521.452 32.646 C 522.868 31.119, 524.982 30, 526.452 30 C 528.843 30, 529 29.692, 529 25 C 529 19.725, 528.701 19.398, 525.500 21.164 M 542.880 21.150 C 540.888 21.693, 537.767 23.676, 535.944 25.558 C 533.133 28.458, 532.568 29.853, 532.226 34.739 C 531.890 39.548, 532.213 41.078, 534.181 44 C 540.199 52.931, 555.047 53.382, 561.319 44.824 C 564.088 41.045, 564.665 33.203, 562.507 28.657 C 559.494 22.307, 550.814 18.987, 542.880 21.150 M 599.037 21.129 C 593.576 22.767, 590.293 25.665, 588.458 30.470 C 583.459 43.560, 595.824 54.792, 609.851 49.902 C 613.964 48.468, 613.928 47.645, 609.470 41.222 C 609.364 41.069, 608.031 41.418, 606.507 41.997 C 603.774 43.036, 600 42.544, 600 41.149 C 600 40.755, 604.306 39.138, 609.569 37.557 C 618.863 34.765, 619.120 34.609, 618.523 32.091 C 616.516 23.616, 607.555 18.575, 599.037 21.129 M 571 37.365 C 571 51.516, 570.832 52.944, 568.876 55.431 L 566.752 58.131 569.492 60.991 C 571.852 63.455, 572.560 63.702, 574.601 62.772 C 575.904 62.178, 577.877 59.820, 578.985 57.530 C 580.742 53.901, 581 51.363, 581 37.684 L 581 22 576 22 L 571 22 571 37.365 M 545.500 29.195 C 542.634 30.820, 542.033 32.028, 542.015 36.193 C 541.999 40.099, 544.645 43, 548.223 43 C 551.089 43, 554.002 39.335, 553.985 35.750 C 553.967 31.940, 553.284 30.712, 550.316 29.150 C 547.717 27.782, 547.996 27.779, 545.500 29.195 M 599 30 C 596.692 32.308, 596.281 35.490, 598.396 34.678 C 599.164 34.384, 601.639 33.589, 603.896 32.913 C 608.432 31.554, 608.971 30.590, 606.066 29.035 C 603.195 27.499, 601.233 27.767, 599 30 M 29.296 57.917 C 19.996 60.578, 13.114 66.628, 10.999 74.004 C 10.220 76.721, 10.357 77, 12.471 77 C 13.753 77, 17.209 75.880, 20.151 74.511 C 23.093 73.141, 28.070 71.511, 31.212 70.888 C 36.236 69.891, 37.349 69.208, 40.462 65.213 C 44.552 59.963, 44.925 57.481, 41.750 56.630 C 38.388 55.729, 36.128 55.963, 29.296 57.917" stroke="none" fill="#ffed87" fill-rule="evenodd"/><path d="M 148 30.470 C 140.410 32.215, 137.366 33.549, 131.729 37.600 L 126.865 41.093 121.683 39.167 C 116.335 37.180, 107.341 35.545, 95.972 34.493 C 82.911 33.284, 63.459 37.469, 54.032 43.516 C 49.198 46.617, 44.025 51.893, 43.882 53.869 C 43.817 54.766, 43.705 56.897, 43.632 58.604 L 43.500 61.709 47.231 59.354 C 55.048 54.420, 65.518 51.792, 79.500 51.253 C 93.641 50.708, 103.843 51.849, 113.641 55.071 L 119.782 57.091 125.379 53.170 C 140.078 42.873, 173.296 42.717, 190.495 52.864 C 193.595 54.694, 193.652 54.689, 196.562 52.360 C 205.333 45.340, 225.362 43.885, 237.500 49.385 C 240.800 50.880, 244.929 53.487, 246.676 55.177 L 249.853 58.250 254.176 56.163 C 270.903 48.090, 300.939 49.982, 315.540 60.028 C 320.789 63.639, 323.654 67.146, 324.499 70.996 C 325.051 73.508, 325.899 74.115, 330.818 75.517 C 338.122 77.598, 346.325 82.995, 349.782 87.993 C 352.308 91.647, 352.845 91.927, 357.387 91.962 L 362.274 92 361.764 85.651 C 360.852 74.286, 352.920 65.002, 339.893 60.051 C 336.927 58.923, 333.712 58.001, 332.750 58.001 C 331.603 58, 330.999 57.225, 330.996 55.750 C 330.987 50.087, 323.799 43.462, 313 39.163 C 297.789 33.108, 272.587 33.644, 260.742 40.274 L 256.984 42.377 253.742 39.294 C 245.256 31.224, 230.336 27.612, 217.386 30.493 C 212.852 31.502, 208.224 33.351, 205.317 35.315 L 200.602 38.500 193.887 35.218 C 182.077 29.446, 161.644 27.332, 148 30.470 M 444 91.975 L 444 116 461 116 L 478 116 478 111.500 L 478 107 466 107 L 454 107 454 102 L 454 97 464 97 L 474 97 474 92 L 474 87 464 87 L 454 87 454 82.500 L 454 78 465.555 78 L 477.110 78 476.805 73.250 L 476.500 68.500 460.250 68.225 L 444 67.950 444 91.975 M 494.869 69.127 C 489.343 70.672, 485.806 74.958, 485.246 80.788 C 484.519 88.360, 486.557 91.252, 495.951 95.975 C 504.908 100.479, 506.760 103.156, 503.016 106.188 C 500.133 108.523, 496.593 108.452, 491.077 105.949 C 486.315 103.789, 486.421 103.744, 483.480 109.169 C 482.057 111.793, 482.105 111.872, 486.314 113.910 C 495.551 118.381, 506.226 117.505, 511.664 111.828 C 514.168 109.215, 514.500 108.128, 514.500 102.539 C 514.500 94.692, 513.192 93.031, 503.300 88.320 C 495.018 84.376, 493.327 81.773, 497.074 78.739 C 499.643 76.659, 504.120 76.977, 509.189 79.598 C 511.894 80.996, 511.987 80.947, 513.981 77.036 L 516.016 73.049 512.153 71.078 C 507.385 68.645, 499.694 67.777, 494.869 69.127 M 30.344 71.021 C 17.331 74.385, 10.451 78.995, 8.139 85.899 C 5.788 92.916, 6.226 93.074, 17 89.096 C 20.749 87.712, 25.001 87.055, 30.357 87.033 C 37.429 87.003, 38.145 86.825, 37.525 85.250 C 36.130 81.709, 35.764 73.309, 36.912 71.164 C 37.549 69.974, 37.942 69.039, 37.785 69.086 C 37.628 69.133, 34.280 70.004, 30.344 71.021 M 525 80.876 C 525 86.321, 524.797 86.890, 522.750 87.180 C 520.943 87.437, 520.439 88.238, 520.190 91.250 C 519.905 94.688, 520.092 95, 522.440 95 L 525 95 525 105.500 L 525 116 530 116 L 535 116 535 105.500 L 535 95 538 95 C 540.833 95, 541 94.778, 541 91 C 541 87.237, 540.825 87, 538.050 87 C 535.160 87, 535.094 86.883, 534.800 81.250 L 534.500 75.500 529.750 75.195 L 525 74.890 525 80.876 M 615 80.930 C 615 86.319, 614.794 86.890, 612.750 87.180 C 610.943 87.437, 610.439 88.238, 610.190 91.250 C 609.905 94.688, 610.092 95, 612.440 95 L 615 95 615 105.500 L 615 116 619.500 116 L 624 116 624 105.500 L 624 95 627.500 95 C 630.917 95, 631 94.905, 631 91 C 631 87.095, 630.917 87, 627.500 87 L 624 87 624 81 L 624 75 619.500 75 L 615 75 615 80.930 M 564.001 87.165 C 562.626 87.690, 560.531 89.032, 559.345 90.146 L 557.189 92.171 556.527 90.086 C 555.987 88.385, 555.048 88, 551.433 88 L 547 88 547 102 L 547 116 552 116 L 557 116 557 108.923 C 557 102.435, 557.243 101.603, 559.923 98.923 C 561.531 97.315, 563.734 96, 564.818 96 C 566.400 96, 566.880 95.159, 567.245 91.750 C 567.793 86.643, 567.276 85.912, 564.001 87.165 M 580.021 87.065 C 574.140 89.532, 570.903 94.795, 570.847 101.977 C 570.800 108.082, 572.564 111.795, 576.898 114.713 C 580.886 117.398, 586.723 117.712, 591.050 115.474 C 592.741 114.600, 594 114.386, 594 114.974 C 594 115.538, 596.025 116, 598.500 116 L 603 116 603 102 L 603 88 598.500 88 C 595.764 88, 594 88.453, 594 89.155 C 594 89.826, 593.194 89.580, 592.078 88.570 C 589.729 86.445, 583.385 85.653, 580.021 87.065 M 647.365 86.922 C 633.392 90.391, 630.589 108.884, 643.071 115.248 C 647.062 117.283, 652.960 117.506, 657.679 115.799 C 661.487 114.422, 661.629 113.935, 659.303 110.215 C 658.369 108.722, 657.532 107.375, 657.441 107.222 C 657.351 107.069, 656.031 107.418, 654.507 107.997 C 651.730 109.053, 648 108.538, 648 107.098 C 648 106.676, 652.284 105.066, 657.521 103.520 C 666.193 100.959, 666.986 100.520, 666.416 98.604 C 663.693 89.450, 656.052 84.765, 647.365 86.922 M 584.303 95.197 C 579.669 97.436, 579.404 105.540, 583.886 107.939 C 591.513 112.021, 598.184 101.436, 591.365 96.073 C 588.436 93.768, 587.500 93.652, 584.303 95.197 M 646.655 95.829 C 645.745 96.835, 645 98.440, 645 99.396 C 645 101.226, 645.174 101.207, 652.872 98.551 C 656.041 97.457, 656.142 97.285, 654.551 95.694 C 652.333 93.476, 648.728 93.538, 646.655 95.829" stroke="none" fill="#b7ffa5" fill-rule="evenodd"/><path d="M 148 45.680 C 139.178 46.586, 130.846 49.340, 125.409 53.148 L 119.782 57.091 113.641 55.071 C 103.843 51.849, 93.641 50.708, 79.500 51.253 C 57.666 52.094, 43.542 58.254, 37.789 69.445 C 35.798 73.317, 35.655 80.510, 37.478 85.128 C 38.037 86.544, 36.907 86.814, 28.810 87.200 C 18.548 87.689, 10.719 90.298, 5.668 94.913 C 2.519 97.790, 0 102.993, 0 106.622 L 0 109 177.433 109 C 345.556 109, 354.894 108.908, 355.421 107.250 C 355.726 106.287, 355.556 102.916, 355.042 99.758 C 353.281 88.937, 344.408 79.832, 331.812 75.920 C 325.949 74.099, 325.047 73.488, 324.493 70.968 C 320.719 53.787, 277.817 44.754, 254.176 56.163 L 249.853 58.250 246.676 55.177 C 241.009 49.694, 232.778 46.725, 221.843 46.221 C 213.857 45.852, 211.089 46.141, 205.843 47.892 C 202.354 49.056, 198.178 51.067, 196.562 52.360 C 193.665 54.679, 193.583 54.686, 190.542 52.892 C 180.847 47.172, 162.974 44.142, 148 45.680 M 456.464 124.040 C 454.642 126.053, 454.748 126.211, 464.540 136.040 C 469.997 141.518, 474.929 146, 475.500 146 C 476.071 146, 481.019 141.502, 486.496 136.005 L 496.453 126.009 494.224 123.779 L 491.994 121.550 483.725 129.776 L 475.456 138.003 467.501 130.001 C 463.126 125.601, 459.269 122, 458.928 122 C 458.588 122, 457.479 122.918, 456.464 124.040 M 563.667 158.667 C 563.300 159.033, 563 160.346, 563 161.583 C 563 162.821, 562.438 164.037, 561.750 164.286 C 560.750 164.648, 560.750 165.162, 561.750 166.856 C 562.438 168.020, 563 169.879, 563 170.986 C 563 172.110, 563.663 173, 564.500 173 C 565.433 173, 566 172.056, 566 170.500 C 566 169.125, 566.450 168, 567 168 C 567.550 168, 568 167.100, 568 166 C 568 164.900, 567.550 164, 567 164 C 566.450 164, 566 163.325, 566 162.500 C 566 161.675, 566.675 161, 567.500 161 C 568.325 161, 569 160.325, 569 159.500 C 569 157.986, 564.976 157.358, 563.667 158.667 M 369 160.501 C 367.162 162.715, 366.709 170.106, 368.234 172.991 C 369.831 176.013, 373.807 177.304, 372.425 174.351 C 371.323 171.998, 371.297 163.051, 372.386 160.750 C 373.442 158.519, 370.805 158.325, 369 160.501 M 375 166 L 375 173 380 173 C 383.778 173, 385 172.633, 385 171.500 C 385 170.500, 384 170, 382 170 C 380.350 170, 379 169.550, 379 169 C 379 168.450, 380.125 168, 381.500 168 C 383.333 168, 384 167.467, 384 166 C 384 164.533, 383.333 164, 381.500 164 C 380.125 164, 379 163.550, 379 163 C 379 162.450, 380.350 162, 382 162 C 384 162, 385 161.500, 385 160.500 C 385 159.367, 383.778 159, 380 159 L 375 159 375 166 M 504.245 160.155 C 502.111 162.289, 502.762 165.935, 505.500 167.182 C 508.828 168.698, 508.683 170.223, 505.250 169.822 C 503.329 169.597, 502.500 169.952, 502.500 171 C 502.500 171.968, 503.676 172.613, 505.815 172.818 C 512.141 173.425, 514.319 168.227, 509.006 165.203 C 505.263 163.073, 505.151 161.758, 508.750 162.178 C 510.671 162.403, 511.500 162.048, 511.500 161 C 511.500 159.087, 505.958 158.442, 504.245 160.155 M 608.575 160.649 C 609.052 161.667, 609.442 164.750, 609.442 167.500 C 609.442 170.250, 609.052 173.333, 608.575 174.351 C 607.875 175.847, 608.072 176.134, 609.604 175.843 C 612.624 175.269, 614.396 168.368, 612.786 163.452 C 611.990 161.023, 610.777 159.388, 609.604 159.162 C 608.072 158.867, 607.874 159.152, 608.575 160.649 M 417.714 160.734 C 417.481 161.155, 417.202 164.088, 417.094 167.250 C 416.935 171.909, 417.197 173, 418.479 173 C 419.767 173, 420.027 171.878, 419.880 166.966 C 419.714 161.457, 418.788 158.792, 417.714 160.734 M 523.254 161.865 C 523.561 163.038, 523.404 164.250, 522.906 164.558 C 522.408 164.866, 522 166.891, 522 169.059 C 522 172.368, 522.330 173, 524.054 173 C 525.939 173, 526.081 172.493, 525.780 166.826 C 525.562 162.699, 524.996 160.499, 524.075 160.192 C 523.091 159.864, 522.856 160.343, 523.254 161.865 M 557.254 161.865 C 557.561 163.038, 557.404 164.250, 556.906 164.558 C 556.408 164.866, 556 166.891, 556 169.059 C 556 172.368, 556.330 173, 558.054 173 C 559.939 173, 560.081 172.493, 559.780 166.826 C 559.562 162.699, 558.996 160.499, 558.075 160.192 C 557.091 159.864, 556.856 160.343, 557.254 161.865 M 570.714 160.734 C 570.481 161.155, 570.202 164.088, 570.094 167.250 C 569.935 171.909, 570.197 173, 571.479 173 C 572.767 173, 573.027 171.878, 572.880 166.966 C 572.714 161.457, 571.788 158.792, 570.714 160.734 M 493.229 163.751 C 492.409 165.517, 492.320 166.607, 492.979 166.826 C 493.541 167.014, 494 168.479, 494 170.083 C 494 172.009, 494.510 173, 495.500 173 C 496.500 173, 497 172, 497 170 C 497 168.350, 497.450 167, 498 167 C 498.550 167, 499 166.325, 499 165.500 C 499 164.675, 498.550 164, 498 164 C 497.450 164, 497 163.325, 497 162.500 C 497 160.023, 494.590 160.822, 493.229 163.751 M 549.711 162.996 C 549.424 164.094, 549.431 166.794, 549.726 168.996 C 550.371 173.801, 553 174.607, 553 170 C 553 168.350, 553.450 167, 554 167 C 554.550 167, 555 166.325, 555 165.500 C 555 164.675, 554.550 164, 554 164 C 553.450 164, 553 163.325, 553 162.500 C 553 160.276, 550.317 160.681, 549.711 162.996 M 387 168.560 C 387 173.776, 389.389 174.803, 390.350 170 C 390.680 168.350, 391.411 167, 391.975 167 C 392.539 167, 393 168.350, 393 170 C 393 172.049, 393.494 173, 394.557 173 C 395.771 173, 396.047 172.062, 395.807 168.750 L 395.500 164.500 391.250 164.310 L 387 164.121 387 168.560 M 398.657 164.750 C 398.404 165.162, 398.197 167.147, 398.198 169.160 C 398.200 173.304, 400.613 174.749, 403.704 172.455 C 405.207 171.339, 405.300 170.793, 404.270 169.107 C 403.481 167.813, 403.397 166.873, 404.037 166.477 C 404.584 166.139, 404.774 165.443, 404.457 164.931 C 403.771 163.820, 399.314 163.681, 398.657 164.750 M 407.750 165.080 C 405.026 166.667, 405.482 171.443, 408.488 172.813 C 411.696 174.274, 414.240 173.333, 413.488 170.963 C 413.122 169.809, 413.480 169.044, 414.486 168.831 C 415.908 168.531, 415.906 168.290, 414.471 166.250 C 412.770 163.834, 410.552 163.448, 407.750 165.080 M 423.135 165.265 C 421.709 166.691, 421.649 171.665, 423.049 172.530 C 423.766 172.974, 423.730 173.620, 422.934 174.579 C 422.007 175.697, 422.250 176.158, 424.136 176.859 C 429.182 178.734, 432 176.096, 432 169.495 L 432 164.236 428.135 164.182 C 426.010 164.153, 423.760 164.640, 423.135 165.265 M 434 168.511 C 434 173.770, 436.384 174.829, 437.350 170 C 437.680 168.350, 438.411 167, 438.975 167 C 439.539 167, 440 168.350, 440 170 C 440 172, 440.500 173, 441.500 173 C 442.579 173, 443 171.896, 443 169.067 C 443 164.905, 442.339 164.384, 436.750 164.142 C 434.141 164.029, 434 164.252, 434 168.511 M 446.061 165.939 C 443.661 168.339, 443.557 169.025, 445.250 171.290 C 447.141 173.819, 451.326 173.953, 451.825 171.500 C 452.048 170.400, 452.742 169.175, 453.366 168.778 C 455.007 167.735, 452.838 164.581, 450.209 164.189 C 449.062 164.017, 447.195 164.805, 446.061 165.939 M 455.549 164.785 C 455.247 165.086, 455 167.058, 455 169.167 C 455 172.333, 455.348 173, 457 173 C 458.556 173, 459 172.333, 459 170 C 459 168.350, 459.450 167, 460 167 C 460.550 167, 461 168.350, 461 170 C 461 172, 461.500 173, 462.500 173 C 463.424 173, 464 172.062, 464 170.559 C 464 169.216, 464.450 167.840, 465 167.500 C 465.583 167.139, 466 168.156, 466 169.941 C 466 172.333, 466.436 173, 468 173 C 469.519 173, 469.996 172.338, 469.985 170.250 C 469.958 165.513, 468.613 164.512, 462.086 164.368 C 458.792 164.295, 455.851 164.483, 455.549 164.785 M 472.750 165.060 C 469.969 166.712, 470.447 171.839, 473.491 172.997 C 476.644 174.195, 479.308 173.244, 478.524 171.201 C 478.198 170.353, 478.510 169.299, 479.216 168.858 C 480.182 168.256, 480.227 167.616, 479.398 166.278 C 478.083 164.157, 475.169 163.623, 472.750 165.060 M 482 168.511 C 482 173.622, 484.630 175.058, 485.184 170.250 C 485.358 168.738, 485.950 167.500, 486.500 167.500 C 487.050 167.500, 487.642 168.738, 487.816 170.250 C 488.329 174.709, 491 173.717, 491 169.067 C 491 164.905, 490.339 164.384, 484.750 164.142 C 482.141 164.029, 482 164.252, 482 168.511 M 514.750 165.060 C 512.965 166.120, 512.441 169.605, 513.765 171.615 C 514.845 173.253, 518.292 174.085, 519.878 173.089 C 521.694 171.948, 520.420 170, 517.858 170 C 516.681 170, 516.009 169.476, 516.253 168.750 C 516.483 168.063, 517.533 167.499, 518.586 167.499 C 521.134 167.497, 521.056 164.567, 518.500 164.260 C 517.400 164.128, 515.712 164.488, 514.750 165.060 M 528.655 165.829 C 526.347 168.379, 526.591 170.686, 529.359 172.500 C 532.016 174.241, 535.400 173.484, 534.574 171.333 C 534.277 170.558, 534.701 169.668, 535.517 169.355 C 537.419 168.625, 537.394 167.537, 535.429 165.571 C 533.341 163.484, 530.686 163.584, 528.655 165.829 M 538 168.560 C 538 173.776, 540.389 174.803, 541.350 170 C 541.680 168.350, 542.411 167, 542.975 167 C 543.539 167, 544 168.350, 544 170 C 544 172.049, 544.494 173, 545.557 173 C 546.771 173, 547.047 172.062, 546.807 168.750 L 546.500 164.500 542.250 164.310 L 538 164.121 538 168.560 M 576.135 165.265 C 574.247 167.153, 574.780 171.812, 577.021 173.011 C 578.132 173.606, 579.482 173.820, 580.021 173.487 C 580.559 173.154, 581 173.809, 581 174.941 C 581 176.333, 581.648 177, 583 177 C 584.791 177, 585 176.333, 585 170.618 L 585 164.236 581.135 164.182 C 579.010 164.153, 576.760 164.640, 576.135 165.265 M 587 168.393 C 587 173.276, 587.843 173.981, 592.802 173.247 C 595.987 172.775, 596.093 172.612, 595.802 168.629 C 595.423 163.450, 592.666 162.779, 592.187 167.750 C 591.766 172.113, 590 171.911, 590 167.500 C 590 165.056, 589.548 164, 588.500 164 C 587.394 164, 587 165.155, 587 168.393 M 598.655 165.829 C 596.347 168.379, 596.591 170.686, 599.359 172.500 C 602.016 174.241, 605.400 173.484, 604.574 171.333 C 604.277 170.558, 604.701 169.668, 605.517 169.355 C 607.419 168.625, 607.394 167.537, 605.429 165.571 C 603.341 163.484, 600.686 163.584, 598.655 165.829 M 425.173 168.659 C 425.594 170.848, 428.500 171.157, 428.500 169.014 C 428.500 168.196, 427.672 167.368, 426.659 167.173 C 425.323 166.916, 424.916 167.323, 425.173 168.659 M 578.446 168.087 C 577.416 169.755, 579.733 171.667, 581.113 170.287 C 582.267 169.133, 581.545 167, 580 167 C 579.515 167, 578.816 167.489, 578.446 168.087" stroke="none" fill="#b4fceb" fill-rule="evenodd"/></svg>